PathFileType	4	(X/Y/Z)	c:/Users/goper/Files/vsCode/490R/osim_files/A01/A01_Slow_03.trc
DataRate	CameraRate	NumFrames	NumMarkers	Units                	OrigDataRate	OrigDataStartFrame	OrigNumFrames
120.00	120.00	6	36	mm	120.0	1048	1676
                Frame#	Time	Mobility_markerset:LPSIS			Mobility_markerset:LASIS			Mobility_markerset:LTH1			Mobility_markerset:LTH2			Mobility_markerset:LTH3			Mobility_markerset:LTH4			Mobility_markerset:LLFE			Mobility_markerset:LMFE			Mobility_markerset:LSH1			Mobility_markerset:LSH2			Mobility_markerset:LSH3			Mobility_markerset:LSH4			Mobility_markerset:LLMAL			Mobility_markerset:LMMAL			Mobility_markerset:LCAL			Mobility_markerset:LMTP5			Mobility_markerset:LTOE			Mobility_markerset:LMTP1			Mobility_markerset:RPSIS			Mobility_markerset:RASIS			Mobility_markerset:RTH1			Mobility_markerset:RTH2			Mobility_markerset:RTH3			Mobility_markerset:RTH4			Mobility_markerset:RLFE			Mobility_markerset:RMFE			Mobility_markerset:RSH1			Mobility_markerset:RSH2			Mobility_markerset:RSH3			Mobility_markerset:RSH4			Mobility_markerset:RLMAL			Mobility_markerset:RMMAL			Mobility_markerset:RCAL			Mobility_markerset:RMTP1			Mobility_markerset:RTOE			Mobility_markerset:RMTP5		
		X1	Y1	Z1	X2	Y2	Z2	X3	Y3	Z3	X4	Y4	Z4	X5	Y5	Z5	X6	Y6	Z6	X7	Y7	Z7	X8	Y8	Z8	X9	Y9	Z9	X10	Y10	Z10	X11	Y11	Z11	X12	Y12	Z12	X13	Y13	Z13	X14	Y14	Z14	X15	Y15	Z15	X16	Y16	Z16	X17	Y17	Z17	X18	Y18	Z18	X19	Y19	Z19	X20	Y20	Z20	X21	Y21	Z21	X22	Y22	Z22	X23	Y23	Z23	X24	Y24	Z24	X25	Y25	Z25	X26	Y26	Z26	X27	Y27	Z27	X28	Y28	Z28	X29	Y29	Z29	X30	Y30	Z30	X31	Y31	Z31	X32	Y32	Z32	X33	Y33	Z33	X34	Y34	Z34	X35	Y35	Z35	X36	Y36	Z36

1048	8.72500	0.00000	0.00000	0.00000	-3546.41846	1021.90436	395.11453	-3474.62085	684.03479	444.74481	-3488.88452	638.36621	440.59650	-3534.17139	694.92273	451.44690	-3539.42798	649.06262	442.68851	0.00000	0.00000	0.00000	-3553.65210	499.75354	288.55600	-3359.86108	442.57947	371.58282	-3325.39380	413.34818	369.82806	-3393.52515	392.20609	383.57895	0.00000	0.00000	0.00000	-3149.09521	235.02721	318.16635	-3165.89917	233.57811	234.53772	-3089.10010	271.90820	254.64552	-3192.33032	100.35825	363.70309	-3242.85425	89.92454	307.51868	-3225.92310	96.35781	267.74512	-3342.80542	1056.56531	172.73311	-3584.63428	1015.90759	140.46034	-3551.64697	700.66119	43.20945	-3558.07349	658.98157	45.82888	-3491.62427	686.65295	42.08517	-3507.25928	645.56866	46.78067	-3570.89575	511.42169	91.21085	-3570.62134	525.20599	215.84978	0.00000	0.00000	0.00000	-3513.53198	260.39816	88.05859	-3567.28516	310.80228	84.25936	-3567.61157	265.37396	85.93686	-3559.38525	86.48283	125.11170	-3581.73071	114.32829	206.80443	-3509.16309	65.63000	177.15976	-3713.92944	58.26336	226.41457	-3748.88428	71.36827	180.49358	-3699.88501	38.65076	113.33167
1049	8.73333	0.00000	0.00000	0.00000	-3553.47827	1023.61761	395.09674	-3485.39087	686.58380	444.95779	-3500.41895	640.99609	441.06293	-3544.82104	698.10242	452.70972	-3550.96094	652.47406	444.07718	0.00000	0.00000	0.00000	-3569.88330	503.41110	290.31229	-3375.12817	445.68402	371.15912	-3341.00806	416.20547	369.22620	-3409.85132	395.19922	383.91699	0.00000	0.00000	0.00000	-3166.24365	236.52222	316.19089	-3184.15088	234.76811	232.87247	-3106.77612	272.86792	251.73947	-3209.55518	102.57345	363.14539	-3260.64160	91.70917	307.83075	-3244.41553	98.07516	267.54776	-3349.64771	1056.85999	171.70924	-3591.15845	1015.69702	140.30130	-3555.59082	700.61450	43.23535	-3561.66943	658.88507	45.83546	-3495.43896	687.15088	42.53410	-3510.76904	645.93787	47.16788	-3573.59619	511.47366	91.54224	-3573.09644	523.44049	216.66530	0.00000	0.00000	0.00000	-3514.47925	260.74957	88.45609	-3568.62671	310.93890	84.62196	-3568.75146	265.51349	86.27645	-3559.44482	86.65199	125.37502	-3581.91528	114.19146	207.13692	-3509.21753	65.71465	177.39523	-3714.03540	57.79099	226.61833	-3749.09155	70.88721	180.70683	-3699.93652	38.59480	113.32418
1050	8.74167	0.00000	0.00000	0.00000	-3560.63843	1025.23608	395.00827	-3495.77539	688.89288	444.95123	-3511.97485	643.47040	441.44516	-3555.01514	701.15283	453.82361	-3562.26538	655.81549	445.37979	0.00000	0.00000	0.00000	-3585.56152	507.29935	291.67938	-3390.83740	447.93829	371.23230	0.00000	0.00000	0.00000	-3425.02979	398.01968	384.15460	0.00000	0.00000	0.00000	-3184.10864	236.95686	314.72281	-3201.62793	235.43338	231.81340	-3124.75610	272.84702	250.00526	-3227.34692	102.55789	361.79904	-3279.92285	93.40545	307.06976	-3263.77002	99.36292	266.72382	-3356.85742	1056.63159	170.80692	-3598.99463	1015.98914	139.39883	-3559.74463	700.48065	43.66263	-3565.64331	658.82690	46.45883	-3499.67871	687.51056	43.04989	-3514.67725	646.18256	47.81913	-3576.26367	511.78836	91.95422	-3576.06323	523.44098	216.51933	0.00000	0.00000	0.00000	-3515.60669	261.11472	89.03235	-3569.85864	311.05969	85.02506	-3569.74243	265.67365	86.67460	-3559.60791	86.80461	125.68771	-3582.07373	114.08843	207.54254	-3509.31152	65.78672	177.65825	-3714.10645	57.35062	226.78442	-3749.22485	70.42526	180.88947	-3699.98657	38.55594	113.33807
1051	8.75000	0.00000	0.00000	0.00000	-3567.66016	1026.48511	395.06985	-3506.03540	691.01556	444.94525	-3523.38574	645.97833	441.67371	-3565.35449	704.35315	454.85229	-3573.20728	659.02936	446.45825	0.00000	0.00000	0.00000	-3600.88892	511.54602	292.66864	-3407.45166	449.22592	371.81299	0.00000	0.00000	0.00000	-3441.45557	399.87778	384.42752	0.00000	0.00000	0.00000	-3202.98267	236.28815	313.91891	-3220.28271	235.86421	230.98479	-3142.95728	271.90323	249.27171	-3247.28052	102.18278	360.18384	-3300.40039	94.13403	305.77121	-3283.89819	99.95126	265.28748	-3363.55005	1057.05896	169.59969	-3606.08740	1015.50507	138.96207	-3564.11597	700.40631	44.41008	-3569.67920	658.65710	47.45707	-3505.84863	687.14465	43.57804	-3518.55811	646.53888	48.61311	-3579.03516	512.15820	92.37663	-3578.98462	522.63947	216.62238	0.00000	0.00000	0.00000	-3516.13818	261.58228	89.50002	-3570.97705	311.17255	85.39561	-3570.59521	265.81018	87.06364	-3559.63647	87.00983	126.04758	-3582.23975	114.03811	207.89621	-3509.40527	65.85108	177.96907	-3714.17383	56.93436	226.93671	-3749.26709	69.96861	181.03741	-3700.00928	38.53297	113.33026
1052	8.75833	0.00000	0.00000	0.00000	-3574.67334	1027.53174	395.11533	-3516.46851	693.02155	445.00290	-3534.69653	648.21875	441.87985	-3575.64380	707.40912	455.73593	-3584.40625	662.20813	447.45212	0.00000	0.00000	0.00000	-3615.83740	516.06799	293.17798	-3423.51172	450.13889	372.45157	-3390.25073	419.88089	370.11621	-3458.39746	401.13058	384.62231	0.00000	0.00000	0.00000	-3221.87134	234.79398	313.48352	-3238.00635	235.17804	230.46962	-3161.28687	269.93576	249.44868	-3269.50781	101.43999	358.60980	-3321.79248	94.07819	303.71344	-3304.80249	99.87374	263.36542	-3369.59326	1057.49133	168.33479	-3613.11523	1014.82428	138.48888	-3568.77271	700.35590	45.26222	-3573.99341	658.61652	48.57605	-3507.59888	688.39838	44.01839	-3522.78442	646.71210	49.48877	-3581.65698	512.17462	92.70402	-3580.76440	521.51752	216.48640	0.00000	0.00000	0.00000	-3517.16309	262.00165	90.25111	-3571.61694	310.62164	85.34850	-3571.43262	265.83969	87.42705	-3559.69482	87.15119	126.37359	-3582.48901	113.99078	208.27893	-3509.42822	65.91341	178.19650	-3714.24854	56.58908	227.01793	-3749.28540	69.50687	181.17229	-3700.02563	38.49013	113.30462
1053	8.76667	0.00000	0.00000	0.00000	-3581.63794	1028.57043	395.19675	-3528.06030	694.92920	444.74023	-3546.24976	650.46704	442.19434	-3585.80957	710.32263	456.50803	-3595.52686	665.31879	448.31964	0.00000	0.00000	0.00000	-3630.35425	520.74701	293.48453	-3439.72949	450.50549	373.58176	0.00000	0.00000	0.00000	-3475.66357	402.01794	384.70706	0.00000	0.00000	0.00000	-3241.90015	231.96608	313.71677	-3256.70044	234.01730	230.21608	-3179.54980	267.02325	250.24095	-3291.01465	98.58086	356.50922	-3344.02832	93.54328	301.43198	-3327.20947	99.54761	261.31628	-3376.51514	1057.31409	167.44156	-3619.88892	1013.94781	138.04440	-3573.40845	700.31635	46.26618	-3578.19800	658.51331	49.75498	-3511.98218	688.75269	44.59882	-3526.93823	646.96936	50.41660	-3584.46460	512.08813	93.04239	-3585.48584	522.08722	217.49741	0.00000	0.00000	0.00000	-3517.96118	262.37778	90.80405	-3573.27954	311.36267	86.02135	-3572.31836	265.91708	87.72221	-3559.74390	87.30461	126.62657	0.00000	0.00000	0.00000	-3509.45825	65.95724	178.36208	-3714.36865	56.26753	227.12701	-3749.35596	69.13416	181.27013	-3700.09546	38.44933	113.27048
